<mxfile host="app.diagrams.net" modified="2021-09-28T04:02:43.505Z" agent="5.0 (X11; Linux x86_64) AppleWebKit/537.36 (KHTML, like Gecko) Chrome/94.0.4606.61 Safari/537.36" etag="U6vAgsVg9YC_9MZ3BsNy" version="15.3.5" type="github">
  <diagram id="QnB-nnarAQZ5F4teXcDb" name="Page-1">
    <mxGraphModel dx="2062" dy="1139" grid="1" gridSize="10" guides="1" tooltips="1" connect="1" arrows="1" fold="1" page="1" pageScale="1" pageWidth="850" pageHeight="1100" math="0" shadow="0">
      <root>
        <mxCell id="0" />
        <mxCell id="1" parent="0" />
        <mxCell id="QsVT19PjEYirkhJrq3bm-5" value="A站" style="shape=umlLifeline;perimeter=lifelinePerimeter;whiteSpace=wrap;html=1;container=1;collapsible=0;recursiveResize=0;outlineConnect=0;hachureGap=4;pointerEvents=0;" vertex="1" parent="1">
          <mxGeometry x="515" y="40" width="100" height="570" as="geometry" />
        </mxCell>
        <mxCell id="QsVT19PjEYirkhJrq3bm-29" value="" style="html=1;points=[];perimeter=orthogonalPerimeter;hachureGap=4;pointerEvents=0;" vertex="1" parent="QsVT19PjEYirkhJrq3bm-5">
          <mxGeometry x="45" y="80" width="10" height="120" as="geometry" />
        </mxCell>
        <mxCell id="QsVT19PjEYirkhJrq3bm-40" value="" style="html=1;points=[];perimeter=orthogonalPerimeter;hachureGap=4;pointerEvents=0;" vertex="1" parent="QsVT19PjEYirkhJrq3bm-5">
          <mxGeometry x="45" y="190" width="10" height="40" as="geometry" />
        </mxCell>
        <mxCell id="QsVT19PjEYirkhJrq3bm-41" value="产品保存" style="edgeStyle=orthogonalEdgeStyle;html=1;align=left;spacingLeft=2;endArrow=block;rounded=0;entryX=1;entryY=0;startSize=14;endSize=14;sourcePerimeterSpacing=8;targetPerimeterSpacing=8;" edge="1" target="QsVT19PjEYirkhJrq3bm-40" parent="QsVT19PjEYirkhJrq3bm-5">
          <mxGeometry relative="1" as="geometry">
            <mxPoint x="45" y="160" as="sourcePoint" />
            <Array as="points">
              <mxPoint x="75" y="160" />
            </Array>
          </mxGeometry>
        </mxCell>
        <mxCell id="QsVT19PjEYirkhJrq3bm-8" value="总站" style="shape=umlLifeline;perimeter=lifelinePerimeter;whiteSpace=wrap;html=1;container=1;collapsible=0;recursiveResize=0;outlineConnect=0;hachureGap=4;pointerEvents=0;" vertex="1" parent="1">
          <mxGeometry x="755" y="40" width="100" height="500" as="geometry" />
        </mxCell>
        <mxCell id="QsVT19PjEYirkhJrq3bm-48" value="" style="html=1;points=[];perimeter=orthogonalPerimeter;hachureGap=4;pointerEvents=0;" vertex="1" parent="QsVT19PjEYirkhJrq3bm-8">
          <mxGeometry x="45" y="200" width="10" height="120" as="geometry" />
        </mxCell>
        <mxCell id="QsVT19PjEYirkhJrq3bm-69" style="edgeStyle=none;curved=1;rounded=0;orthogonalLoop=1;jettySize=auto;html=1;endArrow=open;startSize=14;endSize=14;sourcePerimeterSpacing=8;targetPerimeterSpacing=8;" edge="1" parent="QsVT19PjEYirkhJrq3bm-8" source="QsVT19PjEYirkhJrq3bm-67" target="QsVT19PjEYirkhJrq3bm-8">
          <mxGeometry relative="1" as="geometry" />
        </mxCell>
        <mxCell id="QsVT19PjEYirkhJrq3bm-67" value="" style="html=1;points=[];perimeter=orthogonalPerimeter;hachureGap=4;pointerEvents=0;" vertex="1" parent="QsVT19PjEYirkhJrq3bm-8">
          <mxGeometry x="45" y="320" width="10" height="20" as="geometry" />
        </mxCell>
        <mxCell id="QsVT19PjEYirkhJrq3bm-68" value="" style="edgeStyle=orthogonalEdgeStyle;html=1;align=left;spacingLeft=2;endArrow=block;rounded=0;entryX=1;entryY=0;startSize=14;endSize=14;sourcePerimeterSpacing=8;targetPerimeterSpacing=8;" edge="1" target="QsVT19PjEYirkhJrq3bm-67" parent="QsVT19PjEYirkhJrq3bm-8">
          <mxGeometry relative="1" as="geometry">
            <mxPoint x="45" y="300" as="sourcePoint" />
            <Array as="points">
              <mxPoint x="45" y="280" />
              <mxPoint x="75" y="280" />
              <mxPoint x="75" y="320" />
            </Array>
          </mxGeometry>
        </mxCell>
        <mxCell id="QsVT19PjEYirkhJrq3bm-83" value="" style="html=1;points=[];perimeter=orthogonalPerimeter;hachureGap=4;pointerEvents=0;" vertex="1" parent="QsVT19PjEYirkhJrq3bm-8">
          <mxGeometry x="45" y="400" width="10" height="80" as="geometry" />
        </mxCell>
        <object label="" id="QsVT19PjEYirkhJrq3bm-15">
          <mxCell style="shape=umlLifeline;participant=umlActor;perimeter=lifelinePerimeter;whiteSpace=wrap;html=1;container=1;collapsible=0;recursiveResize=0;verticalAlign=top;spacingTop=36;outlineConnect=0;hachureGap=4;pointerEvents=0;size=40;" vertex="1" parent="1">
            <mxGeometry x="405" y="40" width="20" height="300" as="geometry" />
          </mxCell>
        </object>
        <mxCell id="QsVT19PjEYirkhJrq3bm-16" value="" style="html=1;points=[];perimeter=orthogonalPerimeter;hachureGap=4;pointerEvents=0;" vertex="1" parent="QsVT19PjEYirkhJrq3bm-15">
          <mxGeometry x="5" y="70" width="10" height="80" as="geometry" />
        </mxCell>
        <mxCell id="QsVT19PjEYirkhJrq3bm-30" value="创建/更新产品" style="html=1;verticalAlign=bottom;startArrow=oval;endArrow=block;startSize=8;sourcePerimeterSpacing=8;targetPerimeterSpacing=8;exitX=1.3;exitY=0.458;exitDx=0;exitDy=0;exitPerimeter=0;" edge="1" parent="1" source="QsVT19PjEYirkhJrq3bm-16">
          <mxGeometry relative="1" as="geometry">
            <mxPoint x="500" y="120" as="sourcePoint" />
            <mxPoint x="558" y="147" as="targetPoint" />
          </mxGeometry>
        </mxCell>
        <mxCell id="QsVT19PjEYirkhJrq3bm-33" value="操作员" style="text;html=1;align=center;verticalAlign=middle;resizable=0;points=[];autosize=1;strokeColor=none;fillColor=none;" vertex="1" parent="1">
          <mxGeometry x="390" y="20" width="50" height="20" as="geometry" />
        </mxCell>
        <mxCell id="QsVT19PjEYirkhJrq3bm-42" value="&amp;nbsp;" style="text;html=1;align=center;verticalAlign=middle;resizable=0;points=[];autosize=1;strokeColor=none;fillColor=none;" vertex="1" parent="1">
          <mxGeometry x="620" y="170" width="20" height="20" as="geometry" />
        </mxCell>
        <mxCell id="QsVT19PjEYirkhJrq3bm-49" value="通知总站创建产品到所有B站" style="html=1;verticalAlign=bottom;startArrow=oval;endArrow=block;startSize=8;sourcePerimeterSpacing=8;targetPerimeterSpacing=8;entryX=-0.033;entryY=0.144;entryDx=0;entryDy=0;entryPerimeter=0;" edge="1" target="QsVT19PjEYirkhJrq3bm-48" parent="1">
          <mxGeometry relative="1" as="geometry">
            <mxPoint x="575" y="258" as="sourcePoint" />
            <mxPoint x="801" y="256.6400000000001" as="targetPoint" />
            <Array as="points">
              <mxPoint x="775" y="258" />
            </Array>
          </mxGeometry>
        </mxCell>
        <mxCell id="QsVT19PjEYirkhJrq3bm-50" value="B站" style="shape=umlLifeline;perimeter=lifelinePerimeter;whiteSpace=wrap;html=1;container=1;collapsible=0;recursiveResize=0;outlineConnect=0;hachureGap=4;pointerEvents=0;" vertex="1" parent="1">
          <mxGeometry x="965" y="40" width="100" height="300" as="geometry" />
        </mxCell>
        <mxCell id="QsVT19PjEYirkhJrq3bm-64" value="" style="html=1;points=[];perimeter=orthogonalPerimeter;hachureGap=4;pointerEvents=0;" vertex="1" parent="QsVT19PjEYirkhJrq3bm-50">
          <mxGeometry x="45" y="210" width="10" height="80" as="geometry" />
        </mxCell>
        <mxCell id="QsVT19PjEYirkhJrq3bm-65" value="通知B站更新" style="html=1;verticalAlign=bottom;endArrow=block;entryX=0;entryY=0;startSize=14;endSize=14;sourcePerimeterSpacing=8;targetPerimeterSpacing=8;" edge="1" target="QsVT19PjEYirkhJrq3bm-64" parent="QsVT19PjEYirkhJrq3bm-50">
          <mxGeometry relative="1" as="geometry">
            <mxPoint x="-150" y="210" as="sourcePoint" />
          </mxGeometry>
        </mxCell>
        <mxCell id="QsVT19PjEYirkhJrq3bm-66" value="返回成功" style="html=1;verticalAlign=bottom;endArrow=open;dashed=1;endSize=8;sourcePerimeterSpacing=8;targetPerimeterSpacing=8;" edge="1" parent="1">
          <mxGeometry relative="1" as="geometry">
            <mxPoint x="805" y="320" as="targetPoint" />
            <mxPoint x="1012" y="320" as="sourcePoint" />
          </mxGeometry>
        </mxCell>
        <mxCell id="QsVT19PjEYirkhJrq3bm-71" value="&amp;nbsp;" style="text;html=1;align=center;verticalAlign=middle;resizable=0;points=[];autosize=1;strokeColor=none;fillColor=none;" vertex="1" parent="1">
          <mxGeometry x="835" y="330" width="20" height="20" as="geometry" />
        </mxCell>
        <mxCell id="QsVT19PjEYirkhJrq3bm-77" value="" style="shape=umlLifeline;participant=umlActor;perimeter=lifelinePerimeter;whiteSpace=wrap;html=1;container=1;collapsible=0;recursiveResize=0;verticalAlign=top;spacingTop=36;outlineConnect=0;hachureGap=4;pointerEvents=0;" vertex="1" parent="1">
          <mxGeometry x="170" y="50" width="20" height="500" as="geometry" />
        </mxCell>
        <mxCell id="QsVT19PjEYirkhJrq3bm-78" value="顾客" style="text;html=1;align=center;verticalAlign=middle;resizable=0;points=[];autosize=1;strokeColor=none;fillColor=none;" vertex="1" parent="1">
          <mxGeometry x="160" y="20" width="40" height="20" as="geometry" />
        </mxCell>
        <mxCell id="QsVT19PjEYirkhJrq3bm-79" value="保存产品与B站的关联关系" style="text;html=1;align=center;verticalAlign=middle;resizable=0;points=[];autosize=1;strokeColor=none;fillColor=none;" vertex="1" parent="1">
          <mxGeometry x="835" y="340" width="160" height="20" as="geometry" />
        </mxCell>
        <mxCell id="QsVT19PjEYirkhJrq3bm-80" value="" style="html=1;points=[];perimeter=orthogonalPerimeter;hachureGap=4;pointerEvents=0;" vertex="1" parent="1">
          <mxGeometry x="560" y="380" width="10" height="250" as="geometry" />
        </mxCell>
        <mxCell id="QsVT19PjEYirkhJrq3bm-81" value="用户下单" style="html=1;verticalAlign=bottom;startArrow=oval;endArrow=block;startSize=8;sourcePerimeterSpacing=8;targetPerimeterSpacing=8;" edge="1" target="QsVT19PjEYirkhJrq3bm-80" parent="1" source="QsVT19PjEYirkhJrq3bm-77">
          <mxGeometry relative="1" as="geometry">
            <mxPoint x="220" y="420" as="sourcePoint" />
            <Array as="points">
              <mxPoint x="500" y="390" />
            </Array>
          </mxGeometry>
        </mxCell>
        <mxCell id="QsVT19PjEYirkhJrq3bm-84" value="" style="html=1;verticalAlign=bottom;startArrow=oval;endArrow=block;startSize=8;sourcePerimeterSpacing=8;targetPerimeterSpacing=8;" edge="1" parent="1" source="QsVT19PjEYirkhJrq3bm-5">
          <mxGeometry x="0.1687" y="8" relative="1" as="geometry">
            <mxPoint x="630" y="437" as="sourcePoint" />
            <mxPoint x="798" y="460" as="targetPoint" />
            <Array as="points">
              <mxPoint x="710" y="460" />
            </Array>
            <mxPoint as="offset" />
          </mxGeometry>
        </mxCell>
        <mxCell id="QsVT19PjEYirkhJrq3bm-85" value="返回用于下单的产品等相关信息" style="html=1;verticalAlign=bottom;endArrow=open;dashed=1;endSize=8;sourcePerimeterSpacing=8;targetPerimeterSpacing=8;exitX=-0.267;exitY=0.517;exitDx=0;exitDy=0;exitPerimeter=0;" edge="1" parent="1" source="QsVT19PjEYirkhJrq3bm-83" target="QsVT19PjEYirkhJrq3bm-5">
          <mxGeometry relative="1" as="geometry">
            <mxPoint x="790" y="480" as="sourcePoint" />
            <mxPoint x="710" y="480" as="targetPoint" />
          </mxGeometry>
        </mxCell>
        <mxCell id="QsVT19PjEYirkhJrq3bm-86" value="查询总站用于下单的产品信息，&lt;br&gt;若无该产品，则总站异步创建产品&lt;br&gt;并通知该B站更新" style="text;html=1;align=center;verticalAlign=middle;resizable=0;points=[];autosize=1;strokeColor=none;fillColor=none;" vertex="1" parent="1">
          <mxGeometry x="580" y="380" width="200" height="50" as="geometry" />
        </mxCell>
        <mxCell id="QsVT19PjEYirkhJrq3bm-87" value="支付系统" style="shape=umlLifeline;perimeter=lifelinePerimeter;whiteSpace=wrap;html=1;container=1;collapsible=0;recursiveResize=0;outlineConnect=0;hachureGap=4;pointerEvents=0;" vertex="1" parent="1">
          <mxGeometry x="1175" y="40" width="100" height="640" as="geometry" />
        </mxCell>
        <mxCell id="QsVT19PjEYirkhJrq3bm-88" value="" style="html=1;points=[];perimeter=orthogonalPerimeter;hachureGap=4;pointerEvents=0;" vertex="1" parent="QsVT19PjEYirkhJrq3bm-87">
          <mxGeometry x="45" y="500" width="10" height="80" as="geometry" />
        </mxCell>
        <mxCell id="QsVT19PjEYirkhJrq3bm-90" value="下单" style="html=1;verticalAlign=bottom;startArrow=oval;startFill=1;endArrow=block;startSize=8;sourcePerimeterSpacing=8;targetPerimeterSpacing=8;entryX=-0.4;entryY=0.8;entryDx=0;entryDy=0;entryPerimeter=0;" edge="1" parent="1" target="QsVT19PjEYirkhJrq3bm-88">
          <mxGeometry width="60" relative="1" as="geometry">
            <mxPoint x="570" y="610" as="sourcePoint" />
            <mxPoint x="630" y="610" as="targetPoint" />
          </mxGeometry>
        </mxCell>
      </root>
    </mxGraphModel>
  </diagram>
</mxfile>
